<?xml version="1.0" encoding="UTF-8" standalone="no"?>
<svg width="25px" height="17px" viewBox="0 0 25 17" version="1.1" xmlns="http://www.w3.org/2000/svg" xmlns:xlink="http://www.w3.org/1999/xlink">
    <!-- Generator: sketchtool 39 (31667) - http://www.bohemiancoding.com/sketch -->
    <title>5F4D3DDF-0DA3-4531-84ED-C8E26E36CC0A</title>
    <desc>Created with sketchtool.</desc>
    <defs></defs>
    <g id="Coupon-Builder" stroke="none" stroke-width="1" fill="none" fill-rule="evenodd">
        <g id="Drag-Product-image-with-Heading-and-Controls" transform="translate(-107.000000, -546.000000)" fill="#707070">
            <g id="Group-6" transform="translate(61.000000, 242.000000)">
                <g id="Group-3" transform="translate(9.000000, 16.000000)">
                    <g id="Fields">
                        <g id="Group-4" transform="translate(11.000000, 61.000000)">
                            <g id="Consumer-Message" transform="translate(4.000000, 227.000000)">
                                <path d="M31.8173885,9.37063648 L24.2309711,9.37063648 C23.9850066,9.37063648 23.7842192,9.57086614 23.7842192,9.81738845 C23.7842192,10.063353 23.9850066,10.2613517 24.2309711,10.2613517 L31.8173885,10.2613517 C32.063353,10.2613517 32.2613517,10.063353 32.2613517,9.81738845 C32.2613517,9.57086614 32.063353,9.37063648 31.8173885,9.37063648 L31.8173885,9.37063648 Z M45.2032152,6.69291339 C45.2032152,7.43136483 44.6036417,8.03038058 43.8629593,8.03038058 L37.6167979,8.03038058 L37.6167979,4.46194226 C37.6167979,3.72349081 37.0177822,3.12447507 36.2793307,3.12447507 L35.3858268,3.12447507 L35.3858268,2.23097113 C35.3858268,1.49251969 35.9848425,0.893503937 36.723294,0.893503937 L43.8629593,0.893503937 C44.6036417,0.893503937 45.2032152,1.49251969 45.2032152,2.23097113 L45.2032152,6.69291339 Z M36.723294,11.6016076 C36.723294,12.3400591 36.1242782,12.9390748 35.3858268,12.9390748 L27.1702756,12.9390748 L27.1306759,13.0260827 L27.0347441,12.9719816 L25.7145669,15.3814304 L24.9889436,12.8955709 L24.4010827,13.0656824 L24.3313648,12.9390748 L24.2309711,12.9390748 C23.4925197,12.9390748 22.8935039,12.3400591 22.8935039,11.6016076 L22.8935039,5.35544619 C22.8935039,4.61420604 23.4925197,4.01519029 24.2309711,4.01519029 L35.3858268,4.01519029 C36.1242782,4.01519029 36.723294,4.61420604 36.723294,5.35544619 L36.723294,11.6016076 Z M44.7564633,0 L35.8325787,0 C35.0918963,0 34.4923228,0.599015748 34.4923228,1.33746719 L34.4923228,3.12447507 L23.3374672,3.12447507 C22.5990157,3.12447507 22,3.72349081 22,4.46194226 L22,12.4923228 C22,13.233563 22.5990157,13.8325787 23.3374672,13.8325787 L24.3335958,13.8325787 L25.1088583,16.4885499 L25.1066273,16.494685 L25.1110892,16.496916 L25.2572178,17 L25.7603018,16.8544291 L25.8891404,16.921916 L25.9588583,16.7953084 L26.113353,16.7495735 L26.0698491,16.5928478 L27.5818898,13.8325787 L36.2793307,13.8325787 C37.0177822,13.8325787 37.6167979,13.233563 37.6167979,12.4923228 L37.6167979,8.92388451 L44.7564633,8.92388451 C45.4949147,8.92388451 46.0939304,8.32486877 46.0939304,7.58641732 L46.0939304,1.33746719 C46.0939304,0.599015748 45.4949147,0 44.7564633,0 L44.7564633,0 Z M33.6016076,6.24616142 L24.2309711,6.24616142 C23.9850066,6.24616142 23.7842192,6.44694882 23.7842192,6.69291339 C23.7842192,6.93887795 23.9850066,7.13966535 24.2309711,7.13966535 L33.6016076,7.13966535 C33.8475722,7.13966535 34.0483596,6.93887795 34.0483596,6.69291339 C34.0483596,6.44694882 33.8475722,6.24616142 33.6016076,6.24616142 L33.6016076,6.24616142 Z" id="Consumer-message"></path>
                            </g>
                        </g>
                    </g>
                </g>
            </g>
        </g>
    </g>
</svg>