<?xml version="1.0" encoding="UTF-8" standalone="no"?>
<svg width="24px" height="14px" viewBox="0 0 24 14" version="1.1" xmlns="http://www.w3.org/2000/svg" xmlns:xlink="http://www.w3.org/1999/xlink">
    <!-- Generator: sketchtool 39 (31667) - http://www.bohemiancoding.com/sketch -->
    <title>BFB343ED-0987-4BE6-ADD4-D488965EB0B8</title>
    <desc>Created with sketchtool.</desc>
    <defs></defs>
    <g id="Coupon-Builder" stroke="none" stroke-width="1" fill="none" fill-rule="evenodd">
        <g id="Drag-Product-image-with-Heading-and-Controls" transform="translate(-107.000000, -761.000000)" fill="#707070">
            <g id="Group-6" transform="translate(61.000000, 242.000000)">
                <g id="Group-3" transform="translate(9.000000, 16.000000)">
                    <g id="Fields">
                        <g id="Group-4" transform="translate(11.000000, 61.000000)">
                            <g id="Group-9" transform="translate(11.000000, 442.000000)">
                                <g id="Copuon-Border" transform="translate(15.000000, 0.000000)">
                                    <path d="M2.19566314,12.0913477 L21.8053454,12.0913477 L21.8053454,1.90952948 L2.19566314,1.90952948 L2.19566314,12.0913477 Z M2.19465456,0 C0.994452849,0 0,0.86573523 0,1.90952948 L0,12.0913477 C0,13.1351419 0.994452849,14 2.19465456,14 L3.6580938,14 L9.51185073,14 L21.8053454,14 C23.0055472,14 24,13.1351419 24,12.0913477 L24,1.90952948 C24,0.86573523 23.0055472,0 21.8053454,0 L2.19465456,0 Z" id="Fill-2"></path>
                                </g>
                            </g>
                        </g>
                    </g>
                </g>
            </g>
        </g>
    </g>
</svg>