<?xml version="1.0" encoding="UTF-8" standalone="no"?>
<svg width="18px" height="17px" viewBox="0 0 18 17" version="1.1" xmlns="http://www.w3.org/2000/svg" xmlns:xlink="http://www.w3.org/1999/xlink">
    <!-- Generator: sketchtool 39 (31667) - http://www.bohemiancoding.com/sketch -->
    <title>F51CA104-98F9-402E-BF97-A65D91C2E3E7</title>
    <desc>Created with sketchtool.</desc>
    <defs>
        <polygon id="path-1" points="17.9785291 0.018891857 0 0.018891857 0 8.23688899 0 16.4548861 17.9785291 16.4548861 17.9785291 0.018891857"></polygon>
    </defs>
    <g id="Coupon-Builder" stroke="none" stroke-width="1" fill="none" fill-rule="evenodd">
        <g id="Drag-Product-image-with-Heading-and-Controls" transform="translate(-216.000000, -482.000000)">
            <g id="Group-6" transform="translate(61.000000, 242.000000)">
                <g id="Group-3" transform="translate(9.000000, 16.000000)">
                    <g id="Fields">
                        <g id="Group-10" transform="translate(118.000000, 69.000000)">
                            <g id="Expire-Date" transform="translate(0.000000, 155.000000)">
                                <g id="Expiry-date" transform="translate(28.000000, 0.000000)">
                                    <g id="Group-3" transform="translate(0.000000, 0.061005)">
                                        <mask id="mask-2" fill="white">
                                            <use xlink:href="#path-1"></use>
                                        </mask>
                                        <g id="Clip-2"></g>
                                        <path d="M16.8547803,13.715252 C16.8547803,14.5918342 16.0684305,15.359001 15.1695605,15.359001 L2.80904933,15.359001 C1.91009865,15.359001 1.12374888,14.5918342 1.12374888,13.715252 L1.12374888,6.59262835 L16.8547803,6.59262835 L16.8547803,13.715252 Z M1.12374888,3.85291551 C1.12374888,2.97633335 1.91009865,2.20948139 2.80904933,2.20948139 L5.05654709,2.20948139 L5.05654709,2.75734524 C5.05654709,3.08606355 5.28134529,3.30528781 5.61834081,3.30528781 C5.95541704,3.30528781 6.18021525,3.08606355 6.18021525,2.75734524 L6.18021525,2.20948139 L11.7986368,2.20948139 L11.7986368,2.75734524 C11.7986368,3.08606355 12.0231121,3.30528781 12.3605112,3.30528781 C12.6975874,3.30528781 12.9223857,3.08606355 12.9223857,2.75734524 L12.9223857,2.20948139 L15.1695605,2.20948139 C16.0684305,2.20948139 16.8551031,2.97633335 16.8551031,3.85291551 L16.8551031,5.49674321 L1.12374888,5.49674321 L1.12374888,3.85291551 Z M15.1695605,1.11359625 L12.9220628,1.11359625 L12.9220628,0.565653684 C12.9220628,0.236935373 12.6975874,0.0177111159 12.3601883,0.0177111159 C12.0231121,0.0177111159 11.7983139,0.236935373 11.7983139,0.565653684 L11.7983139,1.11359625 L6.18021525,1.11359625 L6.18021525,0.565653684 C6.18021525,0.236935373 5.95541704,0.0177111159 5.61834081,0.0177111159 C5.28134529,0.0177111159 5.05654709,0.236935373 5.05654709,0.565653684 L5.05654709,1.11359625 L2.80904933,1.11359625 C1.23594619,1.11359625 0,2.31889673 0,3.85291551 L0,13.715252 C0,15.2495857 1.23594619,16.4548861 2.80904933,16.4548861 L15.1695605,16.4548861 C16.742583,16.4548861 17.9785291,15.2495857 17.9785291,13.715252 L17.9785291,3.85291551 C17.9785291,2.31889673 16.742583,1.11359625 15.1695605,1.11359625 L15.1695605,1.11359625 Z" id="Fill-1" fill="#707070" mask="url(#mask-2)"></path>
                                    </g>
                                    <g id="Group-20" transform="translate(2.744395, 8.247476)" fill="#D5D5D5">
                                        <path d="M1.18840359,5.52878065 C1.5253991,5.52878065 1.75027803,5.4192866 1.97507623,5.20006234 C2.19987444,4.98107424 2.31215247,4.65211978 2.31215247,4.43321038 C2.31215247,4.21390741 2.19987444,3.88526782 1.97507623,3.66596484 C1.5253991,3.22751633 0.851327354,3.22751633 0.401730942,3.66596484 C0.177174888,3.88526782 0.0646547085,4.10417721 0.0646547085,4.43321038 C0.0646547085,4.65211978 0.177174888,4.98107424 0.401730942,5.20006234 C0.626529148,5.4192866 0.851327354,5.52878065 1.18840359,5.52878065" id="Fill-4"></path>
                                        <path d="M1.18840359,2.24144011 C1.5253991,2.24144011 1.75027803,2.13194606 1.97507623,1.9127218 C2.19987444,1.69349754 2.31215247,1.36477923 2.31215247,1.14555498 C2.31215247,0.92633072 2.19987444,0.597612408 1.97507623,0.378703016 C1.5253991,-0.0598242137 0.851327354,-0.0598242137 0.401730942,0.378703016 C0.177174888,0.597612408 0.0646547085,0.816836665 0.0646547085,1.14555498 C0.0646547085,1.47427329 0.177174888,1.69349754 0.401730942,1.9127218 C0.626529148,2.13194606 0.851327354,2.24144011 1.18840359,2.24144011" id="Fill-6"></path>
                                        <path d="M4.55956951,5.52878065 C4.89664574,5.52878065 5.12112108,5.4192866 5.34591928,5.20006234 C5.57079821,4.98107424 5.68299552,4.65211978 5.68299552,4.43321038 C5.68299552,4.21390741 5.57079821,3.88526782 5.34591928,3.66596484 C4.89664574,3.22751633 4.22225112,3.22751633 3.77289686,3.66596484 C3.54809865,3.88526782 3.43582063,4.21390741 3.43582063,4.43321038 C3.43582063,4.65211978 3.54809865,4.98107424 3.77289686,5.20006234 C3.99769507,5.4192866 4.22225112,5.52878065 4.55956951,5.52878065" id="Fill-8"></path>
                                        <path d="M4.55956951,2.24144011 C4.89664574,2.24144011 5.12112108,2.13194606 5.34591928,1.9127218 C5.57079821,1.69349754 5.68299552,1.36477923 5.68299552,1.14555498 C5.68299552,0.92633072 5.57079821,0.597612408 5.34591928,0.378703016 C4.89664574,-0.0598242137 4.22225112,-0.0598242137 3.77289686,0.378703016 C3.54809865,0.597612408 3.43582063,0.92633072 3.43582063,1.14555498 C3.43582063,1.36477923 3.54809865,1.69349754 3.77289686,1.9127218 C3.99769507,2.13194606 4.22225112,2.24144011 4.55956951,2.24144011" id="Fill-10"></path>
                                        <path d="M7.93049327,5.52878065 C8.26756951,5.52878065 8.49236771,5.4192866 8.71684305,5.20006234 C8.94164126,4.98107424 9.05391928,4.76184998 9.05391928,4.43321038 C9.05391928,4.10417721 8.94164126,3.88526782 8.71684305,3.66596484 C8.26756951,3.22751633 7.59341704,3.22751633 7.14382063,3.66596484 C6.91902242,3.88526782 6.80674439,4.21390741 6.80674439,4.43321038 C6.80674439,4.65211978 6.91902242,4.98107424 7.14382063,5.20006234 C7.36861883,5.4192866 7.59341704,5.52878065 7.93049327,5.52878065" id="Fill-12"></path>
                                        <path d="M7.93049327,2.24144011 C8.26756951,2.24144011 8.49236771,2.13194606 8.71684305,1.9127218 C8.94164126,1.69349754 9.05391928,1.47427329 9.05391928,1.14555498 C9.05391928,0.92633072 8.94164126,0.597612408 8.71684305,0.378703016 C8.26756951,-0.0598242137 7.59341704,-0.0598242137 7.14382063,0.378703016 C6.91902242,0.597612408 6.80674439,0.92633072 6.80674439,1.14555498 C6.80674439,1.36477923 6.91902242,1.69349754 7.14382063,1.9127218 C7.36861883,2.13194606 7.59341704,2.24144011 7.93049327,2.24144011" id="Fill-14"></path>
                                        <path d="M11.301417,5.52878065 C11.6384933,5.52878065 11.8632915,5.4192866 12.0880897,5.20006234 C12.312565,4.98107424 12.4251659,4.65211978 12.4251659,4.43321038 C12.4251659,4.21390741 12.312565,3.88526782 12.0880897,3.66596484 C11.6384933,3.22751633 10.9643408,3.22751633 10.5147444,3.66596484 C10.2901883,3.88526782 10.1776682,4.10417721 10.1776682,4.43321038 C10.1776682,4.65211978 10.2901883,4.98107424 10.5147444,5.20006234 C10.7395426,5.4192866 10.9643408,5.52878065 11.301417,5.52878065" id="Fill-16"></path>
                                        <path d="M11.301417,2.24144011 C11.6384933,2.24144011 11.8632915,2.13194606 12.0880897,1.9127218 C12.312565,1.69349754 12.4251659,1.47427329 12.4251659,1.14555498 C12.4251659,0.92633072 12.312565,0.597612408 12.0880897,0.378703016 C11.6384933,-0.0598242137 10.9643408,-0.0598242137 10.5147444,0.378703016 C10.2901883,0.597612408 10.1776682,0.92633072 10.1776682,1.14555498 C10.1776682,1.36477923 10.2901883,1.69349754 10.5147444,1.9127218 C10.7395426,2.13194606 10.9643408,2.24144011 11.301417,2.24144011" id="Fill-18"></path>
                                    </g>
                                </g>
                            </g>
                        </g>
                    </g>
                </g>
            </g>
        </g>
    </g>
</svg>