<?xml version="1.0" encoding="UTF-8" standalone="no"?>
<svg width="22px" height="18px" viewBox="0 0 22 18" version="1.1" xmlns="http://www.w3.org/2000/svg" xmlns:xlink="http://www.w3.org/1999/xlink">
    <!-- Generator: sketchtool 39 (31667) - http://www.bohemiancoding.com/sketch -->
    <title>BEB0A38E-1E22-4517-BC58-FDEA0B92BD45</title>
    <desc>Created with sketchtool.</desc>
    <defs>
        <path d="M0.715787234,15.2211892 L20.0174681,15.2211892 L20.0174681,0.692756757 L0.715787234,0.692756757 L0.715787234,15.2211892 Z M20.3753617,0 L0.357893617,0 C0.160404255,0 0,0.155243243 0,0.346378378 L0,15.5675676 C0,15.7582703 0.160404255,15.9139459 0.357893617,15.9139459 L20.3753617,15.9139459 C20.5724043,15.9139459 20.7310213,15.7582703 20.7310213,15.5675676 L20.7310213,0.346378378 C20.7310213,0.155243243 20.5724043,0 20.3753617,0 L20.3753617,0 Z" id="path-1"></path>
        <mask id="mask-2" maskContentUnits="userSpaceOnUse" maskUnits="objectBoundingBox" x="-0.2" y="-0.2" width="21.1310213" height="16.3139459">
            <rect x="-0.2" y="-0.2" width="21.1310213" height="16.3139459" fill="white"></rect>
            <use xlink:href="#path-1" fill="black"></use>
        </mask>
    </defs>
    <g id="Coupon-Builder" stroke="none" stroke-width="1" fill="none" fill-rule="evenodd">
        <g id="Drag-Product-image-with-Heading-and-Controls" transform="translate(-214.000000, -701.000000)">
            <g id="Group-6" transform="translate(61.000000, 242.000000)">
                <g id="Group-3" transform="translate(9.000000, 16.000000)">
                    <g id="Fields">
                        <g id="Group-10" transform="translate(118.000000, 69.000000)">
                            <g id="Image" transform="translate(18.000000, 375.000000)">
                                <g id="image">
                                    <g id="Product-image-Copy" transform="translate(9.000000, 0.000000)">
                                        <g id="Fill-1">
                                            <use fill="#707070" fill-rule="evenodd" xlink:href="#path-1"></use>
                                            <use stroke="#707070" mask="url(#mask-2)" stroke-width="0.4" xlink:href="#path-1"></use>
                                        </g>
                                        <path d="M5.71959574,4.49643243 C6.42287234,4.49643243 6.99523404,5.05081081 6.99523404,5.73145946 C6.99523404,6.41210811 6.42287234,6.96605405 5.71959574,6.96605405 C5.01631915,6.96605405 4.44351064,6.41210811 4.44351064,5.73318919 C4.44351064,5.05254054 5.01631915,4.49643243 5.71959574,4.49643243 M5.71959574,7.65881081 C6.81740426,7.65881081 7.70923404,6.79394595 7.70923404,5.73318919 C7.70923404,4.66897297 6.81740426,3.80583784 5.71959574,3.80583784 C4.62178723,3.80583784 3.72817021,4.66897297 3.72817021,5.73145946 C3.72817021,6.79394595 4.62178723,7.65881081 5.71959574,7.65881081" id="Fill-3" fill="#707070"></path>
                                        <path d="M2.50302128,13.8378378 C2.58657447,13.8378378 2.67057447,13.8092973 2.73848936,13.7517838 L8.56978723,8.784 L12.252383,12.3463784 C12.3917872,12.4812973 12.6169787,12.4812973 12.7568298,12.3463784 C12.896234,12.211027 12.896234,11.9930811 12.7568298,11.8581622 L11.0392979,10.1941622 L14.3206596,6.71610811 L18.3455106,10.2871351 C18.4920638,10.4172973 18.7172553,10.4069189 18.8512979,10.2668108 C18.984,10.124973 18.9737234,9.90702703 18.8289574,9.77686486 L14.5387021,5.97145946 C14.469,5.91048649 14.3765106,5.88021622 14.282234,5.88194595 C14.1879574,5.88497297 14.0972553,5.92562162 14.0342553,5.99308108 L10.5330638,9.70421622 L8.83653191,8.064 C8.70382979,7.93427027 8.4893617,7.92908108 8.34817021,8.04886486 L2.26531915,13.2315676 C2.11697872,13.3582703 2.10312766,13.5775135 2.23404255,13.7210811 C2.30374468,13.7989189 2.40338298,13.8378378 2.50302128,13.8378378" id="Fill-4" fill="#707070"></path>
                                    </g>
                                </g>
                            </g>
                        </g>
                    </g>
                </g>
            </g>
        </g>
    </g>
</svg>