<?xml version="1.0" encoding="UTF-8" standalone="no"?>
<svg width="20px" height="16px" viewBox="0 0 20 16" version="1.1" xmlns="http://www.w3.org/2000/svg" xmlns:xlink="http://www.w3.org/1999/xlink">
    <!-- Generator: sketchtool 39 (31667) - http://www.bohemiancoding.com/sketch -->
    <title>D7EA1C32-EDA3-4457-8AFB-1958D6B348FF</title>
    <desc>Created with sketchtool.</desc>
    <defs></defs>
    <g id="Coupon-Builder" stroke="none" stroke-width="1" fill="none" fill-rule="evenodd">
        <g id="Drag-Product-image-with-Heading-and-Controls" transform="translate(-107.000000, -471.000000)" fill="#707070">
            <g id="Group-6" transform="translate(61.000000, 242.000000)">
                <g id="Group-3" transform="translate(9.000000, 16.000000)">
                    <g id="Fields">
                        <g id="Group-4" transform="translate(11.000000, 61.000000)">
                            <g id="offer-description" transform="translate(0.000000, 152.666667)">
                                <g id="offer-discription" transform="translate(26.000000, 0.000000)">
                                    <path d="M4,10.9090909 L12,10.9090909 L12,9.54545455 L4,9.54545455 L4,10.9090909 Z M4,8.18181818 L16,8.18181818 L16,6.81818182 L4,6.81818182 L4,8.18181818 Z M4,5.45454545 L16,5.45454545 L16,4.09090909 L4,4.09090909 L4,5.45454545 Z M1.8292887,13.2692003 L18.1707113,13.2692003 L18.1707113,1.73079968 L1.8292887,1.73079968 L1.8292887,13.2692003 Z M18.1707113,0 L1.8292887,0 C0.829288703,0 0,0.784639747 0,1.73079968 L0,13.2692003 C0,14.2153603 0.829288703,15 1.8292887,15 L3.04937238,15 L7.92719665,15 L18.1707113,15 C19.1707113,15 20,14.2153603 20,13.2692003 L20,1.73079968 C20,0.784639747 19.1707113,0 18.1707113,0 L18.1707113,0 Z" id="Fill-4"></path>
                                </g>
                            </g>
                        </g>
                    </g>
                </g>
            </g>
        </g>
    </g>
</svg>