<?xml version="1.0" encoding="UTF-8" standalone="no"?>
<svg width="21px" height="14px" viewBox="0 0 21 14" version="1.1" xmlns="http://www.w3.org/2000/svg" xmlns:xlink="http://www.w3.org/1999/xlink">
    <!-- Generator: sketchtool 39 (31667) - http://www.bohemiancoding.com/sketch -->
    <title>71EB5FB3-9EAA-4681-AB6D-977B59EB2974</title>
    <desc>Created with sketchtool.</desc>
    <defs>
        <polygon id="path-1" points="0 13.9635152 20.9763898 13.9635152 20.9763898 0 0 0"></polygon>
    </defs>
    <g id="Coupon-Builder" stroke="none" stroke-width="1" fill="none" fill-rule="evenodd">
        <g id="Drag-Product-image-with-Heading-and-Controls" transform="translate(-214.000000, -411.000000)">
            <g id="Group-6" transform="translate(61.000000, 242.000000)">
                <g id="Group-3" transform="translate(9.000000, 16.000000)">
                    <g id="Fields">
                        <g id="Group-10" transform="translate(118.000000, 69.000000)">
                            <g id="Offer-ID" transform="translate(13.000000, 84.000000)">
                                <g id="offer-id" transform="translate(13.000000, 0.000000)">
                                    <path d="M12.4742966,5.52721212 L17.7781017,5.52721212 C18.0401271,5.52721212 18.252678,5.31012121 18.252678,5.04236364 C18.252678,4.77460606 18.0401271,4.55751515 17.7781017,4.55751515 L12.4742966,4.55751515 C12.2122119,4.55751515 11.9997203,4.77460606 11.9997203,5.04236364 C11.9997203,5.31012121 12.2122119,5.52721212 12.4742966,5.52721212 L12.4742966,5.52721212 Z" id="Fill-1" fill="#707070"></path>
                                    <path d="M12.4742966,7.46660606 L17.7781017,7.46660606 C18.0401271,7.46660606 18.252678,7.24951515 18.252678,6.98175758 C18.252678,6.714 18.0401271,6.49690909 17.7781017,6.49690909 L12.4742966,6.49690909 C12.2122119,6.49690909 11.9997203,6.714 11.9997203,6.98175758 C11.9997203,7.24951515 12.2122119,7.46660606 12.4742966,7.46660606" id="Fill-3" fill="#707070"></path>
                                    <path d="M12.4742966,9.406 L17.7781017,9.406 C18.0401271,9.406 18.252678,9.18890909 18.252678,8.92115152 C18.252678,8.65339394 18.0401271,8.43630303 17.7781017,8.43630303 L12.4742966,8.43630303 C12.2122119,8.43630303 11.9997203,8.65339394 11.9997203,8.92115152 C11.9997203,9.18890909 12.2122119,9.406 12.4742966,9.406" id="Fill-5" fill="#707070"></path>
                                    <mask id="mask-2" fill="white">
                                        <use xlink:href="#path-1"></use>
                                    </mask>
                                    <g id="Clip-8"></g>
                                    <path d="M1.42372881,12.5089697 L19.552661,12.5089697 L19.552661,1.45454545 L1.42372881,1.45454545 L1.42372881,12.5089697 Z M20.2645254,0 L0.711864407,0 C0.318618644,0 0,0.325515152 0,0.727272727 L0,13.2362424 C0,13.638 0.318618644,13.9635152 0.711864407,13.9635152 L20.2645254,13.9635152 C20.6575339,13.9635152 20.9763898,13.638 20.9763898,13.2362424 L20.9763898,0.727272727 C20.9763898,0.325515152 20.6575339,0 20.2645254,0 L20.2645254,0 Z" id="Fill-7" fill="#707070" mask="url(#mask-2)"></path>
                                    <path d="M5.94958475,3.53927273 C6.88598305,3.53927273 7.64791525,4.31769697 7.64791525,5.27436364 C7.64791525,6.23109091 6.88598305,7.00921212 5.94958475,7.00921212 C5.01318644,7.00921212 4.25149153,6.23109091 4.25149153,5.27436364 C4.25149153,4.31769697 5.01318644,3.53927273 5.94958475,3.53927273 M7.64791525,9.714 L7.64791525,10.3271515 L4.25149153,10.3271515 L4.25149153,9.714 C4.25149153,8.75733333 5.01318644,7.97890909 5.94958475,7.97890909 C6.88598305,7.97890909 7.64791525,8.75733333 7.64791525,9.714 M4.43989831,7.49406061 C3.7530678,7.98321212 3.30233898,8.79569697 3.30233898,9.714 L3.30233898,10.812 C3.30233898,11.08 3.51459322,11.2968485 3.77691525,11.2968485 L8.12225424,11.2968485 C8.38433898,11.2968485 8.59683051,11.08 8.59683051,10.812 L8.59683051,9.714 C8.59683051,8.79569697 8.14610169,7.98321212 7.45927119,7.49406061 C8.14610169,7.0049697 8.59683051,6.19272727 8.59683051,5.27436364 C8.59683051,3.78315152 7.40920339,2.56957576 5.94958475,2.56957576 C4.4899661,2.56957576 3.30210169,3.78290909 3.30210169,5.27436364 C3.30233898,6.19272727 3.7530678,7.0049697 4.43989831,7.49406061" id="Fill-9" fill="#707070" mask="url(#mask-2)"></path>
                                </g>
                            </g>
                        </g>
                    </g>
                </g>
            </g>
        </g>
    </g>
</svg>