<?xml version="1.0" encoding="UTF-8" standalone="no"?>
<svg width="24px" height="11px" viewBox="0 0 24 11" version="1.1" xmlns="http://www.w3.org/2000/svg" xmlns:xlink="http://www.w3.org/1999/xlink">
    <!-- Generator: sketchtool 39 (31667) - http://www.bohemiancoding.com/sketch -->
    <title>76B1B459-6D01-4821-9ED1-17D5914B57D2</title>
    <desc>Created with sketchtool.</desc>
    <defs>
        <polygon id="path-1" points="0 11 24 11 24 0 0 0"></polygon>
    </defs>
    <g id="Coupon-Builder" stroke="none" stroke-width="1" fill="none" fill-rule="evenodd">
        <g id="Drag-Product-image-with-Heading-and-Controls" transform="translate(-213.000000, -327.000000)">
            <g id="Group-6" transform="translate(61.000000, 242.000000)">
                <g id="Group-3" transform="translate(9.000000, 16.000000)">
                    <g id="Fields">
                        <g id="Group-10" transform="translate(118.000000, 69.000000)">
                            <g id="Pin-Number" transform="translate(11.000000, 0.000000)">
                                <g id="Group-8" transform="translate(14.000000, 0.000000)">
                                    <g id="Pin-Code">
                                        <path d="M3.5,9 L7.5,9 C7.7766,9 8,8.7766 8,8.5 C8,8.2234 7.7766,8 7.5,8 L3.5,8 C3.2234,8 3,8.2234 3,8.5 C3,8.7766 3.2234,9 3.5,9 L3.5,9 Z" id="Fill-1" fill="#707070"></path>
                                        <path d="M3.1203,6.325 C3.2184,6.441 3.3594,6.5 3.5,6.5 C3.6152,6.5 3.7309,6.4605 3.8254,6.3785 L5.2496,5.1578 L6.675,6.3797 C6.7691,6.4605 6.8852,6.5 7,6.5 C7.1406,6.5 7.2816,6.441 7.3797,6.3262 C7.5605,6.1164 7.5355,5.8004 7.3258,5.6215 L6.0172,4.5 L7.3254,3.3785 C7.5355,3.1996 7.559,2.8836 7.3789,2.6738 C7.2004,2.4641 6.884,2.441 6.675,2.6203 L5.2496,3.8422 L3.8254,2.6215 C3.6164,2.441 3.3012,2.4645 3.1215,2.675 C2.9406,2.8844 2.9652,3.2004 3.175,3.3793 L4.4824,4.5 L3.175,5.6203 C2.9652,5.8 2.9406,6.1156 3.1203,6.325" id="Fill-3" fill="#707070"></path>
                                        <path d="M9.5,9 L13.5,9 C13.7766,9 14,8.7766 14,8.5 C14,8.2234 13.7766,8 13.5,8 L9.5,8 C9.2234,8 9,8.2234 9,8.5 C9,8.7766 9.2234,9 9.5,9" id="Fill-5" fill="#707070"></path>
                                        <path d="M9.6465,6.3535 C9.7441,6.4512 9.8719,6.5 10,6.5 C10.1281,6.5 10.2559,6.4512 10.3535,6.3535 L11.5,5.207 L12.6465,6.3535 C12.7441,6.4512 12.8719,6.5 13,6.5 C13.1281,6.5 13.2559,6.4512 13.3535,6.3535 C13.5492,6.1578 13.5492,5.8422 13.3535,5.6465 L12.207,4.5 L13.3535,3.3535 C13.5492,3.1578 13.5492,2.8422 13.3535,2.6465 C13.1578,2.4508 12.8422,2.4508 12.6465,2.6465 L11.5,3.793 L10.3535,2.6465 C10.1578,2.4508 9.8422,2.4508 9.6465,2.6465 C9.4508,2.8422 9.4508,3.1578 9.6465,3.3535 L10.793,4.5 L9.6465,5.6465 C9.4512,5.8422 9.4512,6.1578 9.6465,6.3535" id="Fill-7" fill="#707070"></path>
                                        <path d="M15.5,9 L19.5,9 C19.7766,9 20,8.7766 20,8.5 C20,8.2234 19.7766,8 19.5,8 L15.5,8 C15.2234,8 15,8.2234 15,8.5 C15,8.7766 15.2234,9 15.5,9" id="Fill-9" fill="#707070"></path>
                                        <mask id="mask-2" fill="white">
                                            <use xlink:href="#path-1"></use>
                                        </mask>
                                        <g id="Clip-12"></g>
                                        <path d="M1,10 L23,10 L23,1 L1,1 L1,10 Z M0.5,0 C0.2234,0 0,0.2234 0,0.5 L0,10.5 C0,10.7766 0.2234,11 0.5,11 L23.5,11 C23.7766,11 24,10.7766 24,10.5 L24,0.5 C24,0.2234 23.7766,0 23.5,0 L0.5,0 Z" id="Fill-11" fill="#707070" mask="url(#mask-2)"></path>
                                    </g>
                                </g>
                            </g>
                        </g>
                    </g>
                </g>
            </g>
        </g>
    </g>
</svg>