<?xml version="1.0" encoding="UTF-8" standalone="no"?>
<svg width="21px" height="19px" viewBox="0 0 21 19" version="1.1" xmlns="http://www.w3.org/2000/svg" xmlns:xlink="http://www.w3.org/1999/xlink">
    <!-- Generator: sketchtool 39 (31667) - http://www.bohemiancoding.com/sketch -->
    <title>860D4A59-CD67-4355-905A-40942B4F79A2</title>
    <desc>Created with sketchtool.</desc>
    <defs>
        <polygon id="path-1" points="0 4.77747323 10.8641176 -3.63693749e-17 21 4.77747323 21 12.9671284 10.5 19 0 12.6395422"></polygon>
        <mask id="mask-2" maskContentUnits="userSpaceOnUse" maskUnits="objectBoundingBox" x="0" y="0" width="21" height="19" fill="white">
            <use xlink:href="#path-1"></use>
        </mask>
    </defs>
    <g id="Coupon-Builder" stroke="none" stroke-width="1" fill="none" fill-rule="evenodd">
        <g id="Drag-Product-image-with-Heading-and-Controls" transform="translate(-107.000000, -319.000000)">
            <g id="Group-6" transform="translate(61.000000, 242.000000)">
                <g id="Group-3" transform="translate(9.000000, 16.000000)">
                    <g id="Fields">
                        <g id="Group-4" transform="translate(11.000000, 61.000000)">
                            <g id="Product-image" transform="translate(11.000000, 0.000000)">
                                <g id="Group-5" transform="translate(15.000000, 0.000000)">
                                    <g id="product-image">
                                        <g id="Group-15">
                                            <use id="Rectangle-58" stroke="#707070" mask="url(#mask-2)" xlink:href="#path-1"></use>
                                            <path d="M0.5,5.07758621 L10.5,10.6465517" id="Line" stroke="#707070" stroke-width="0.5" stroke-linecap="square"></path>
                                            <path d="M10.5,10.6465517 L20.542425,5.23436608" id="Line" stroke="#707070" stroke-width="0.5" stroke-linecap="square"></path>
                                            <path d="M9.94736842,10.6176471 L10.5,10.9529275 L11.0526316,10.6176471 L11.0526316,18.2176334 C11.0526316,17.9109238 10.4813729,18.552948 10.4813729,18.552948 L9.94736842,18.105896 L9.94736842,10.6176471 Z" id="Rectangle-59" fill="#707070"></path>
                                        </g>
                                        <g id="barcode" transform="translate(5.122807, 12.506085)" fill="#707070">
                                            <path d="M0.550952848,0.353402212 L0.673098525,0.411191296 L0.506678509,1.83357992 L0.387249606,1.74727113 L0.550952848,0.353402212 Z M0.795298001,0.468672163 L1.03985835,0.582709242 L0.901784163,1.78000358 L0.661036897,1.62339289 L0.795298001,0.468672163 Z M1.16221922,0.639265455 L1.28463389,0.69551345 L1.14309414,1.93339046 L1.02236881,1.8571 L1.16221922,0.639265455 Z M1.40710237,0.751453227 L1.77483057,0.91742325 L1.62740223,2.23049281 L1.26396014,2.00887498 L1.40710237,0.751453227 Z M1.89751424,0.972130155 L2.14304297,1.08061931 L1.99211041,2.44485709 L1.74883094,2.30275352 L1.89751424,0.972130155 Z M2.26588803,1.13440156 L2.3887869,1.18787559 L2.23595258,2.58373684 L2.11396116,2.51469994 L2.26588803,1.13440156 Z M2.63474602,1.29389901 L2.75780628,1.34644839 L2.56155053,3.16000517 L2.43939044,3.0893435 L2.63474602,1.29389901 Z M1.01030858,1.96091241 L1.25158418,2.11622355 L1.22662575,2.33210383 L0.986000703,2.16961087 L1.01030858,1.96091241 Z M0.64950078,1.72161157 L0.889891896,1.88199001 L0.865929168,2.08698376 L0.626268071,1.91896828 L0.64950078,1.72161157 Z M1.37244311,2.1926123 L1.61460321,2.34285615 L1.58876825,2.56894013 L1.34717926,2.41196968 L1.37244311,2.1926123 Z M1.73590438,2.41671124 L1.97894896,2.56188778 L1.95235667,2.79749266 L1.70980373,2.64604472 L1.73590438,2.41671124 Z M2.10069238,2.63320923 L2.34462146,2.77331847 L2.31739101,3.01776142 L2.07387412,2.871836 L2.10069238,2.63320923 Z" id="Combined-Shape" transform="translate(1.572528, 1.756704) rotate(-3.000000) translate(-1.572528, -1.756704) "></path>
                                        </g>
                                        <g id="Group-14" transform="translate(18.000000, 12.775862)"></g>
                                        <path d="M16.0877193,10.7332657 L19.4210526,9.09533469 L19.4210526,12.0436105 L16.0877193,14.0091278 L16.0877193,10.7332657 Z" id="Rectangle-59" fill="#707070"></path>
                                    </g>
                                </g>
                            </g>
                        </g>
                    </g>
                </g>
            </g>
        </g>
    </g>
</svg>