<?xml version="1.0" encoding="UTF-8" standalone="no"?>
<svg width="23px" height="21px" viewBox="0 0 23 21" version="1.1" xmlns="http://www.w3.org/2000/svg" xmlns:xlink="http://www.w3.org/1999/xlink">
    <!-- Generator: sketchtool 39 (31667) - http://www.bohemiancoding.com/sketch -->
    <title>A70CF2DE-4150-45FA-B474-7D5DA8760E0E</title>
    <desc>Created with sketchtool.</desc>
    <defs></defs>
    <g id="Coupon-Builder" stroke="none" stroke-width="1" fill="none" fill-rule="evenodd">
        <g id="Drag-Product-image-with-Heading-and-Controls" transform="translate(-106.000000, -622.000000)" stroke-width="0.5" stroke="#707070" fill="#221F20">
            <g id="Group-6" transform="translate(61.000000, 242.000000)">
                <g id="Group-3" transform="translate(9.000000, 16.000000)">
                    <g id="Fields">
                        <g id="Group-4" transform="translate(11.000000, 61.000000)">
                            <g id="Retailers-Message" transform="translate(8.000000, 303.333333)">
                                <path d="M35.7779045,4.24106636 L20.9303242,4.24106636 C20.7399762,4.24106636 20.58459,4.07732753 20.58459,3.87161621 C20.58459,3.66821107 20.7399762,3.504011 20.9303242,3.504011 L35.7779045,3.504011 C35.9699791,3.504011 36.1232071,3.66821107 36.1232071,3.87161621 C36.1232071,4.07732753 35.9699791,4.24106636 35.7779045,4.24106636 L35.7779045,4.24106636 Z M35.7779045,7.19390017 L20.9303242,7.19390017 C20.7399762,7.19390017 20.58459,7.0283164 20.58459,6.82491126 C20.58459,6.62104488 20.7399762,6.4554611 20.9303242,6.4554611 L35.7779045,6.4554611 C35.9699791,6.4554611 36.1232071,6.62104488 36.1232071,6.82491126 C36.1232071,7.0283164 35.9699791,7.19390017 35.7779045,7.19390017 L35.7779045,7.19390017 Z M35.7779045,10.1453503 L20.9303242,10.1453503 C20.7399762,10.1453503 20.58459,9.9797665 20.58459,9.77590012 C20.58459,9.57249498 20.7399762,9.40644997 20.9303242,9.40644997 L35.7779045,9.40644997 C35.9699791,9.40644997 36.1232071,9.57249498 36.1232071,9.77590012 C36.1232071,9.9797665 35.9699791,10.1453503 35.7779045,10.1453503 L35.7779045,10.1453503 Z M20.2392874,0.73843907 C19.3859583,0.73843907 18.6914685,1.48102927 18.6914685,2.39243189 L18.6914685,13.1899701 C18.6914685,14.1018339 19.3859583,14.8439629 20.2392874,14.8439629 L25.5837084,14.8439629 C25.700248,14.8439629 25.8081551,14.9071522 25.8720361,15.008163 L28.2041235,18.7464819 C28.229158,18.7879932 28.2563506,18.818896 28.2900176,18.8419578 C28.3538985,18.887159 28.4281386,18.9051472 28.5041052,18.887159 C28.5783452,18.8710157 28.6439527,18.8239696 28.6862523,18.7557066 L31.0248142,15.008163 C31.0886952,14.9071522 31.1966022,14.8439629 31.3114153,14.8439629 L36.656268,14.8439629 C37.5108919,14.8439629 38.2053818,14.1018339 38.2053818,13.1899701 L38.2053818,2.39243189 C38.2071083,1.48102927 37.5108919,0.73843907 36.6579945,0.73843907 L20.2392874,0.73843907 Z M28.4466986,19.6311329 C28.2563506,19.6311329 28.0690239,19.5716334 27.9071633,19.4544794 C27.7940767,19.375608 27.6999817,19.2727524 27.6257417,19.1519085 L25.4002664,15.5828632 L20.2392874,15.5828632 C19.0048306,15.5828632 18,14.5091055 18,13.1899701 L18,2.39243189 C18,1.07375775 19.0048306,0 20.2392874,0 L36.6579945,0 C37.8920197,0 38.8968503,1.07375775 38.8968503,2.39243189 L38.8968503,13.1899701 C38.8968503,14.5091055 37.8920197,15.5828632 36.6579945,15.5828632 L31.4970155,15.5828632 L29.2611811,19.1662068 C29.116154,19.3986698 28.8951604,19.5554901 28.6387732,19.6112997 C28.5748922,19.6242143 28.5110112,19.6311329 28.4466986,19.6311329 L28.4466986,19.6311329 Z" id="Retailer-Message"></path>
                            </g>
                        </g>
                    </g>
                </g>
            </g>
        </g>
    </g>
</svg>